<svg width="82" height="36" viewBox="0 0 82 36" fill="none" xmlns="http://www.w3.org/2000/svg">
<path fill-rule="evenodd" clip-rule="evenodd" d="M49.3147 20.5048L51.6973 17.2908H52.7147L52.0719 21.7108L49.0995 25.5942L50.17 26.3698L40.6341 35.5312L40.7669 34.7822L49.3651 22.4067L47.4898 21.6311L40.8465 26.4787L40.6314 26.1573L41.1122 15.3623L46.3901 13.2187L46.0156 15.6306L41.8905 17.5059L41.1414 25.3817L41.3034 25.488L47.1153 20.5872L46.7939 17.9097L47.6253 16.3027L47.9733 12.9823L47.4367 12.5812L47.1153 12.6344L40.6872 4.3575L47.2773 11.4816L46.7142 7.48922L42.5891 4.30172L41.7576 1.59765H39.2661L38.4347 4.30172L34.3095 7.48922L33.7464 11.4816L40.3365 4.3575L33.9084 12.6344L33.587 12.5812L33.0505 12.9823L33.3984 16.3027L34.2298 17.9097L33.9084 20.5872L39.7203 25.488L39.8823 25.3817L39.1333 17.5059L35.0081 15.6306L34.6336 13.2187L39.9116 15.3623L40.395 26.1573L40.1798 26.4787L33.5366 21.6311L31.6612 22.4067L40.2595 34.7822L40.3923 35.5312L30.8564 26.3698L31.9269 25.5942L28.9545 21.7108L28.3117 17.2908H29.3291L31.7117 20.5048H32.3811L32.5697 18.4436L32.0066 16.8366L31.3903 12.5786L32.1128 12.2572L33.0505 6.60469L37.3642 3.31094L38.6498 0.471405H42.3739L43.6595 3.31094L47.9733 6.60469L48.9109 12.2572L49.6334 12.5786L49.0172 16.8366L48.454 18.4436L48.6426 20.5048H49.312H49.3147Z" fill="#CCCCCC"/>
<path d="M24.3858 6.75079H17.615V7.10142H18.2472C18.8076 7.06688 19.3336 7.27673 19.7187 7.69642C20.0189 7.97001 20.234 8.34985 20.3137 8.76954V22.4174L3.34294 6.22485H2.99232L3.20216 7.41751C3.37748 8.40032 3.44654 9.41501 3.41201 10.4324V27.9291C3.41201 28.455 3.20216 28.9809 2.81701 29.3661C2.43185 29.7513 1.90591 29.9611 1.34544 29.9611H0.713257V30.3117H8.11091V30.3463H10.9159V29.9956H10.2837C9.1256 29.9611 8.21451 29.05 8.21451 27.9264H8.20919L8.18529 14.592L25.2198 30.7659V30.7314H25.4987L25.3925 30.2055C25.3234 29.8894 25.2517 29.3634 25.1826 28.6967C25.1136 28.03 25.0764 27.2942 25.0764 26.4522V7.74157C25.0897 7.72829 25.1029 7.71235 25.1162 7.69642C25.4669 7.31126 25.9928 7.10142 26.5533 7.10142H27.1483V6.71626H24.3778V6.75079H24.3858Z" fill="#CCCCCC"/>
<path d="M72.4427 19.3388H72.9686C74.1267 19.3388 74.6872 19.8302 74.6872 20.8475L74.6527 26.0006C74.4428 26.7019 73.986 27.3341 73.4255 27.8228C72.7933 28.3488 72.092 28.7339 71.3563 28.9809C70.586 29.2253 69.7785 29.3661 68.971 29.3661C67.4622 29.3661 66.0252 28.9092 64.798 28.0327C63.5708 27.0499 62.6597 25.7881 62.1683 24.3166C61.5361 22.4944 61.2572 20.6005 61.2917 18.672C61.2572 16.6745 61.5733 14.6744 62.2374 12.7805C62.7978 11.2717 63.7806 9.94095 65.1114 8.99267C66.4794 8.08157 68.0917 7.6247 69.7386 7.65923C70.8967 7.65923 72.0177 7.83454 73.1041 8.25423C74.225 8.67392 75.1733 9.34064 75.9436 10.2172C76.8202 11.2691 77.4524 12.5308 77.7658 13.8642H78.0819L78.0128 8.11345C77.2425 7.69376 76.4005 7.37767 75.5585 7.16782C74.5066 6.88626 73.4202 6.67642 72.3338 6.53563C71.1411 6.36032 69.9139 6.25407 68.7213 6.25407C66.336 6.18501 63.9533 6.71095 61.815 7.76282C59.9211 8.70845 58.3778 10.1481 57.326 11.9703C56.3086 13.758 55.7827 15.9334 55.7827 18.4569C55.7136 20.7359 56.2741 22.9805 57.3605 24.978C58.4124 26.8002 59.9556 28.2744 61.8124 29.2545C63.9161 30.2719 66.2297 30.7978 68.5433 30.7261C70.2274 30.7606 71.8742 30.5508 73.4866 30.0939C74.82 29.7088 76.0817 29.1483 77.2744 28.4099C78.1855 27.8494 78.993 27.1827 79.6942 26.3752V20.8342C79.6597 19.8169 80.2202 19.3255 81.4128 19.3255H81.9042V18.9749H72.4374V19.3255L72.4427 19.3388Z" fill="#CCCCCC"/>
</svg>
